<?xml version="1.0" standalone="no"?><!DOCTYPE svg PUBLIC "-//W3C//DTD SVG 1.1//EN" "http://www.w3.org/Graphics/SVG/1.1/DTD/svg11.dtd"><svg t="1744615563853" class="icon" viewBox="0 0 1024 1024" version="1.1" xmlns="http://www.w3.org/2000/svg" p-id="55674" xmlns:xlink="http://www.w3.org/1999/xlink" width="32" height="32"><path d="M409.173333 641.706667a53.973333 53.973333 0 0 1-9.173333 0 51.413333 51.413333 0 0 1-31.36-21.333334 47.36 47.36 0 0 1-8.533333-34.346666l1.28-5.973334 41.386666-126.293333a59.306667 59.306667 0 0 1 14.72-24.746667l282.666667-266.666666a47.786667 47.786667 0 0 1 44.16-11.733334c9.6 1.706667 18.410667 6.421333 25.173333 13.44l91.52 98.56a51.413333 51.413333 0 0 1 0 70.613334L577.493333 600.106667a44.8 44.8 0 0 1-22.613333 10.88l-144.853333 30.72h-0.853334z m54.613334-168.533334l-28.586667 87.04a7.253333 7.253333 0 0 0 8.32 9.386667l94.506667-21.333333 257.28-241.493334a14.293333 14.293333 0 0 0 0-21.333333l-52.053334-55.68a14.293333 14.293333 0 0 0-21.333333 0l-258.133333 243.413333z" p-id="55675" fill="#555555"></path><path d="M810.666667 496.64V757.333333a53.333333 53.333333 0 0 1-53.333334 53.333334h-490.666666a53.333333 53.333333 0 0 1-53.333334-53.333334v-490.666666a53.333333 53.333333 0 0 1 53.333334-53.333334h260.693333a32 32 0 1 0 0-64H256a106.666667 106.666667 0 0 0-106.666667 106.666667v512a106.666667 106.666667 0 0 0 106.666667 106.666667h512a106.666667 106.666667 0 0 0 106.666667-106.666667V496.64a32 32 0 0 0-64 0z" p-id="55676" fill="#555555"></path><path d="M471.896027 394.214526m22.627417 22.627417l105.594613 105.594613q22.627417 22.627417 0 45.254834l0 0q-22.627417 22.627417-45.254834 0l-105.594613-105.594613q-22.627417-22.627417 0-45.254834l0 0q22.627417-22.627417 45.254834 0Z" p-id="55677" fill="#555555"></path></svg>